<?xml version="1.0" encoding="UTF-8"?>
<svg width="2000" height="1000" viewBox="0 0 2000 1000" xmlns="http://www.w3.org/2000/svg">
    <!-- Background -->
    <rect width="2000" height="1000" fill="#3D0814"/>
    
    <!-- Continents -->
    <path d="M1000,500 C1000,500 1200,400 1300,450 C1400,500 1500,450 1600,500 C1700,550 1800,500 1900,550 L1900,600 C1800,550 1700,600 1600,550 C1500,500 1400,550 1300,500 C1200,450 1000,500 1000,500 Z" fill="#442F38" stroke="#9A9B73" stroke-width="2"/>
    <path d="M800,500 C800,500 600,450 500,500 C400,550 300,500 200,450 L200,500 C300,550 400,600 500,550 C600,500 800,500 800,500 Z" fill="#442F38" stroke="#9A9B73" stroke-width="2"/>
    <path d="M1000,300 C1000,300 1200,250 1300,300 C1400,350 1500,300 1600,350 L1600,400 C1500,350 1400,400 1300,350 C1200,300 1000,300 1000,300 Z" fill="#442F38" stroke="#9A9B73" stroke-width="2"/>
    <path d="M800,300 C800,300 600,250 500,300 C400,350 300,300 200,250 L200,300 C300,350 400,400 500,350 C600,300 800,300 800,300 Z" fill="#442F38" stroke="#9A9B73" stroke-width="2"/>
    <path d="M1000,700 C1000,700 1200,650 1300,700 C1400,750 1500,700 1600,750 L1600,800 C1500,750 1400,800 1300,750 C1200,700 1000,700 1000,700 Z" fill="#442F38" stroke="#9A9B73" stroke-width="2"/>
    <path d="M800,700 C800,700 600,650 500,700 C400,750 300,700 200,650 L200,700 C300,750 400,800 500,750 C600,700 800,700 800,700 Z" fill="#442F38" stroke="#9A9B73" stroke-width="2"/>
    
    <!-- Grid Lines -->
    <g stroke="#9A9B73" stroke-width="1" fill="none" opacity="0.5">
        <!-- Vertical Lines -->
        <line x1="200" y1="0" x2="200" y2="1000"/>
        <line x1="400" y1="0" x2="400" y2="1000"/>
        <line x1="600" y1="0" x2="600" y2="1000"/>
        <line x1="800" y1="0" x2="800" y2="1000"/>
        <line x1="1000" y1="0" x2="1000" y2="1000"/>
        <line x1="1200" y1="0" x2="1200" y2="1000"/>
        <line x1="1400" y1="0" x2="1400" y2="1000"/>
        <line x1="1600" y1="0" x2="1600" y2="1000"/>
        <line x1="1800" y1="0" x2="1800" y2="1000"/>
        
        <!-- Horizontal Lines -->
        <line x1="0" y1="200" x2="2000" y2="200"/>
        <line x1="0" y1="400" x2="2000" y2="400"/>
        <line x1="0" y1="600" x2="2000" y2="600"/>
        <line x1="0" y1="800" x2="2000" y2="800"/>
    </g>

    <!-- Decorative Elements -->
    <circle cx="1000" cy="500" r="300" fill="none" stroke="#E7F9A9" stroke-width="1" opacity="0.1"/>
    <circle cx="1000" cy="500" r="400" fill="none" stroke="#C6B38E" stroke-width="1" opacity="0.1"/>
    <circle cx="1000" cy="500" r="500" fill="none" stroke="#9A9B73" stroke-width="1" opacity="0.1"/>
</svg> 